<?xml version="1.0" encoding="utf-8"?>
<!-- Generator: Adobe Illustrator 15.1.0, SVG Export Plug-In . SVG Version: 6.00 Build 0)  -->
<!DOCTYPE svg PUBLIC "-//W3C//DTD SVG 1.1//EN" "http://www.w3.org/Graphics/SVG/1.1/DTD/svg11.dtd">
<svg version="1.1" id="Layer_1" xmlns="http://www.w3.org/2000/svg" xmlns:xlink="http://www.w3.org/1999/xlink" x="0px" y="0px"
	 width="393.246px" height="236.436px" viewBox="0 0 393.246 236.436" enable-background="new 0 0 393.246 236.436"
	 xml:space="preserve">
<g enable-background="new    ">
	<path d="M39.143,215.404l-7.02,12.147h2.148v2.821h-9.487v-2.821h2.564l-4.006-7.469l-4.296,7.469h2.469v2.821h-9.487v-2.821h2.147
		l-7.019-12.147H2.219v-2.821h12.949v2.821h-4.776l6.218,10.737l6.218-10.737h-4.231v-2.821h9.488v2.821h-2.02l-1.057,1.826
		l4.711,8.847l6.154-10.673h-4.744v-2.821h12.949v2.821H39.143z"/>
	<path d="M76.385,217.584v-1.86c0-0.191-0.161-0.352-0.353-0.352H58.5v4.935h9.872v-1.665h2.821v5.769h-2.821v-1.282H58.5v4.424
		h17.564c0.16,0,0.321-0.16,0.321-0.353v-1.827h2.82v1.827c0,1.73-1.41,3.174-3.205,3.174H50.294v-2.821h5.417v-12.18h-5.417v-2.789
		c25.738,0,25.738,0,25.738,0c1.762,0,3.172,1.41,3.172,3.141v1.86H76.385z"/>
	<path d="M113.019,224.731c0,3.494-2.276,5.642-5.93,5.642H84.492v-2.821h5.32v-12.18h-5.32v-2.789h18.622
		c3.014,0,5.45,2.437,5.45,5.417v1.251C111.319,219.763,113.019,221.782,113.019,224.731z M92.633,215.372v3.75h13.109V218
		c0-1.441-1.186-2.628-2.629-2.628H92.633z M110.198,224.731c0-0.674,0-2.788-3.109-2.788H92.633v5.608h14.455
		C110.198,227.552,110.198,225.435,110.198,224.731z"/>
	<path d="M161.094,219.794v3.334c0,3.976-3.237,7.245-7.212,7.245h-21.603v-2.821h5.321v-12.18h-5.321v-2.789h21.603
		C157.856,212.583,161.094,215.821,161.094,219.794z M158.305,219.794c0-2.434-1.987-4.422-4.423-4.422H140.42v12.18h13.462
		c2.436,0,4.423-1.986,4.423-4.424V219.794z"/>
	<path d="M191.766,217.584v-1.86c0-0.191-0.161-0.352-0.353-0.352H173.88v4.935h9.871v-1.665h2.82v5.769h-2.82v-1.282h-9.871v4.424
		h17.563c0.161,0,0.322-0.16,0.322-0.353v-1.827h2.82v1.827c0,1.73-1.41,3.174-3.205,3.174h-25.705v-2.821h5.417v-12.18h-5.417
		v-2.789c25.737,0,25.737,0,25.737,0c1.763,0,3.173,1.41,3.173,3.141v1.86H191.766z"/>
	<path d="M226.444,225.212c0,3.205-2.79,5.161-7.244,5.161h-12.532c-1.506,0-2.884-0.448-4.007-1.283v1.347h-2.788v-7.18h2.788
		c0,2.532,1.666,4.327,4.007,4.327H219.2c0.738,0,4.423-0.128,4.423-2.372s-3.685-2.371-4.423-2.371h-11.026
		c-4.39,0-7.211-2.021-7.211-5.193c0-3.108,2.756-5.064,7.211-5.064h11.443c1.121,0,1.986,0.193,2.725,0.514v-1.508h2.788v7.31
		h-2.788c0-2.98-0.706-3.494-2.725-3.494h-11.443c-0.736,0-4.422,0.096-4.422,2.243c0,1.764,2.403,2.403,4.422,2.403H219.2
		C223.591,220.051,226.444,222.071,226.444,225.212z"/>
	<path d="M241.122,215.372v12.18h7.211v2.821h-17.276v-2.821h7.244v-12.18h-7.244v-2.789h17.276v2.789H241.122z"/>
	<path d="M256.122,219.731v3.396c0,2.438,1.985,4.424,4.423,4.424h12.532c1.506,0,3.14-0.961,4.006-2.34v-1.507h-10.481v-2.82h11.86
		c0.802,0,1.41,0.641,1.41,1.41v8.109h-2.789v-1.281c-1.218,0.77-2.628,1.25-4.006,1.25h-12.532c-3.975,0-7.244-3.27-7.244-7.245
		v-3.396c0-3.942,3.27-7.148,7.244-7.148h12.532c1.538,0,2.884,0.448,4.006,1.218v-2.212h2.789v7.918h-2.789
		c0-2.468-1.603-4.135-4.006-4.135h-12.532C258.107,215.372,256.122,217.328,256.122,219.731z"/>
	<path d="M312.562,215.372v12.18h5.063v2.821h-12.949v-2.821h5.065v-1.635l-16.507-8.365v10h5.064v2.821h-12.95v-2.821h5.064v-12.18
		h-5.064v-2.789h12.95v2.789h-3.173l14.615,7.403v-7.403h-5.065v-2.789h12.949v2.789H312.562z"/>
	<path d="M350.158,217.584v-1.86c0-0.191-0.16-0.352-0.353-0.352h-17.532v4.935h9.872v-1.665h2.82v5.769h-2.82v-1.282h-9.872v4.424
		h17.564c0.16,0,0.32-0.16,0.32-0.353v-1.827h2.821v1.827c0,1.73-1.411,3.174-3.207,3.174h-25.704v-2.821h5.416v-12.18h-5.416
		v-2.789c25.737,0,25.737,0,25.737,0c1.763,0,3.174,1.41,3.174,3.141v1.86H350.158z"/>
	<path d="M391.246,228.512c-1.763,1.091-3.846,2.244-6.025,2.244c-2.084,0-3.75-1.219-5.193-3.397l-2.275-3.397h-11.249v3.622h7.819
		v2.789h-16.058v-2.789h5.448v-12.18h-5.448v-2.821h24.616c2.691,0,4.775,2.084,4.775,4.712v1.859c0,2.66-2.147,4.808-4.775,4.808
		h-1.763l1.282,2.084c1.089,1.313,1.666,1.891,2.852,1.891c1.122,0,2.532-0.609,4.552-1.828L391.246,228.512z M366.502,221.141
		h16.378c1.089,0,1.988-0.866,1.988-1.987v-1.859c0-1.058-0.899-1.891-1.988-1.891h-16.378V221.141z"/>
</g>
<polygon opacity="0.7" fill="#55BD96" enable-background="new    " points="93.537,188.101 41.959,98.767 93.537,9.435 
	196.692,9.435 248.268,98.767 196.691,188.101 "/>
<polygon opacity="0.7" fill="#54B9DE" enable-background="new    " points="200.812,188.101 149.235,98.767 200.812,9.435 
	303.966,9.435 355.542,98.767 303.966,188.101 "/>
<g>
	<g>
		<path d="M132.84,102.967c1.13,1.614,0.404,2.904-1.532,2.904h-12.104c-1.291,0-2.178-0.484-2.905-1.613l-10.005-15.331
			c-0.323-0.483-0.808-0.483-1.129,0l-3.308,4.518c-0.243,0.323-0.323,0.646-0.323,1.049v8.956c0,1.533-0.808,2.421-2.42,2.421
			h-9.199c-1.533,0-2.421-0.888-2.421-2.421V51.811c0-1.614,0.888-2.421,2.421-2.421h9.199c1.613,0,2.42,0.807,2.42,2.421v16.218
			c0,0.807,0.564,0.969,0.967,0.322l12.668-17.428c0.726-1.048,1.612-1.533,2.904-1.533h11.942c2.017,0,2.663,1.292,1.534,2.986
			l-16.3,22.43c-0.242,0.404-0.322,0.728,0,1.13L132.84,102.967z"/>
		<path d="M176.894,103.127c0,1.774-0.808,2.744-2.421,2.744h-9.038c-1.533,0-2.42-0.808-2.42-2.421v-7.02
			c0-1.613-0.808-2.42-2.421-2.42h-6.939c-1.533,0-2.421,0.807-2.421,2.42v7.021c0,1.612-0.807,2.421-2.421,2.421h-9.036
			c-1.533,0-2.421-0.97-2.421-2.744V68.916c0-10.167,1.614-20.978,19.769-20.978c18.153,0,19.768,10.812,19.768,20.978v34.211
			H176.894z M163.015,68.916c0-3.873-0.564-5.809-5.89-5.809c-5.326,0-5.891,1.937-5.891,5.809v8.795c0,1.534,0.887,2.42,2.421,2.42
			h6.938c1.614-0.081,2.421-0.887,2.421-2.5V68.916L163.015,68.916z"/>
		<path d="M196.015,49.39c1.613,0,2.42,0.807,2.42,2.421v37.762c0,1.533,0.888,2.42,2.421,2.42h17.993
			c1.612,0,2.421,0.807,2.421,2.421v9.036c0,1.613-0.809,2.421-2.421,2.421h-31.871c-1.534,0-2.421-0.888-2.421-2.421V51.811
			c0-1.614,0.887-2.421,2.421-2.421H196.015z"/>
		<path d="M262.581,49.39c1.613,0,2.421,0.807,2.421,2.421v9.037c0,1.532-0.808,2.421-2.421,2.421h-19.526
			c-1.533,0-2.421,0.807-2.421,2.421v2.582c0,1.531,0.888,2.419,2.421,2.419h12.506c1.614,0,2.42,0.807,2.42,2.421v9.036
			c0,1.534-0.806,2.421-2.42,2.421h-12.506c-1.533,0-2.421,0.807-2.421,2.42v2.583c0,1.533,0.888,2.42,2.421,2.42h19.526
			c1.613,0,2.421,0.807,2.421,2.421v9.036c0,1.613-0.808,2.421-2.421,2.421h-33.888c-1.533,0-2.42-0.888-2.42-2.421V51.811
			c0-1.614,0.887-2.421,2.42-2.421H262.581z"/>
		<path d="M306.983,49.39c1.613,0,2.424,0.807,2.424,2.421v9.037c0,1.532-0.811,2.421-2.424,2.421h-19.526
			c-1.531,0-2.42,0.807-2.42,2.421v2.582c0,1.531,0.889,2.419,2.42,2.419h12.508c1.613,0,2.42,0.807,2.42,2.421v9.036
			c0,1.534-0.807,2.421-2.42,2.421h-12.508c-1.531,0-2.42,0.807-2.42,2.42v2.583c0,1.533,0.889,2.42,2.42,2.42h19.526
			c1.613,0,2.424,0.807,2.424,2.421v9.036c0,1.613-0.811,2.421-2.424,2.421h-33.886c-1.535,0-2.423-0.888-2.423-2.421V51.811
			c0-1.614,0.888-2.421,2.423-2.421H306.983z"/>
	</g>
	<g>
		<path d="M201.033,3.422c4.747,8.239,11.877,17.812,25.144,17.857l40.589,0.133c24.669,0.081,42.68,9.16,42.605,31.975
			l-6.898-0.023c0.045-14.059-9.735-24.437-28.57-24.5l-47.75-0.155c-12.735-0.042-21.726-8.826-27.799-17.602
			c-6.129,8.735-14.912,17.46-27.646,17.419l-47.485-0.156c-17.774-0.059-28.683,9.456-28.998,24.311l-6.632-0.022
			c0.076-23.079,18.145-31.774,42.55-31.694l40.588,0.133c13,0.041,20.46-9.485,25.262-17.693L201.033,3.422z"/>
	</g>
	<g>
		<path d="M110.09,114.083c1.006,0,1.51,0.503,1.51,1.512v5.64c0,0.957-0.503,1.512-1.51,1.512H97.902
			c-0.957,0-1.511,0.503-1.511,1.51v1.612c0,0.956,0.554,1.511,1.511,1.511h7.806c1.007,0,1.51,0.503,1.51,1.51v5.64
			c0,0.957-0.503,1.513-1.51,1.513h-7.806c-0.957,0-1.511,0.504-1.511,1.512v1.609c0,0.958,0.554,1.512,1.511,1.512h12.187
			c1.006,0,1.51,0.505,1.51,1.513v5.639c0,1.008-0.503,1.512-1.51,1.512h-21.44c-0.958,0-1.053-0.54-1.222-1.512v-32.229
			c0-1.008,0.555-1.512,1.51-1.512L110.09,114.083L110.09,114.083z"/>
		<path d="M121.437,114.083c0.907,0,1.46,0.453,1.662,1.311l4.431,19.338c0.102,0.453,0.505,0.453,0.605,0l4.432-19.338
			c0.202-0.857,0.755-1.311,1.662-1.311h5.993c1.058,0,1.562,0.605,1.311,1.662l-7.353,32.28c-0.202,0.856-0.755,1.31-1.662,1.31
			h-9.367c-0.907,0-1.46-0.452-1.662-1.31l-7.353-32.28c-0.251-1.057,0.252-1.662,1.309-1.662H121.437z"/>
		<path d="M167.349,114.083c1.006,0,1.51,0.503,1.51,1.512v5.64c0,0.957-0.504,1.512-1.51,1.512h-12.187
			c-0.958,0-1.512,0.503-1.512,1.51v1.612c0,0.956,0.554,1.511,1.512,1.511h7.805c1.007,0,1.51,0.503,1.51,1.51v5.64
			c0,0.957-0.503,1.513-1.51,1.513h-7.805c-0.958,0-1.512,0.504-1.512,1.512v1.609c0,0.958,0.554,1.512,1.512,1.512h12.187
			c1.006,0,1.51,0.505,1.51,1.513v5.639c0,1.008-0.504,1.512-1.51,1.512h-21.152c-0.957,0-1.511-0.555-1.511-1.512v-32.229
			c0-1.008,0.554-1.512,1.511-1.512L167.349,114.083L167.349,114.083z"/>
		<path d="M199.276,146.616c0.704,1.309-0.101,2.719-1.662,2.719h-5.741c-0.503,0-0.957-0.252-1.159-0.705l-5.237-10.121
			c-0.101-0.149-0.25-0.251-0.403-0.251h-2.013c-0.908,0-1.562,0.654-1.562,1.561v7.957c0,0.905-0.655,1.561-1.562,1.561h-5.639
			c-0.907,0-1.562-0.654-1.562-1.561v-32.129c0-0.906,0.655-1.562,1.562-1.562h11.029c8.964,0,12.59,3.827,12.59,12.087
			c0,4.682-1.159,7.956-3.828,9.868c-0.202,0.152-0.251,0.403-0.151,0.655L199.276,146.616z M183.061,122.745
			c-0.908,0-1.562,0.655-1.562,1.562v3.728c0,0.906,0.654,1.562,1.562,1.562h2.567c2.419,0,3.626-0.304,3.626-3.425
			c0-3.122-1.208-3.424-3.626-3.424h-2.567V122.745z"/>
		<path d="M219.419,126.574c-1.008,0.2-1.511-0.253-1.662-1.26c-0.354-2.065-2.015-3.374-4.379-3.374
			c-1.966,0-3.174,1.158-2.975,2.315c0.705,3.929,16.62,3.828,16.62,15.411c0,1.511-1.712,10.423-13.646,10.423
			c-10.579,0-12.844-6.948-13.096-10.878c-0.05-0.904,0.402-1.458,1.31-1.66l5.691-1.258c1.006-0.201,1.562,0.251,1.661,1.309
			c0.201,2.417,2.066,3.827,4.434,3.827c2.465,0,4.279-1.461,3.978-2.82c-0.958-4.279-16.115-3.323-16.115-14.906
			c-0.05-1.511,0.854-10.424,12.138-10.424c10.373,0,12.791,6.748,13.092,10.374c0.05,0.904-0.403,1.461-1.311,1.661
			L219.419,126.574z"/>
		<path d="M255.427,138.005c0,3.324-0.706,12.238-12.64,12.238c-11.936,0-12.64-8.913-12.64-12.238v-12.59
			c0-3.324,0.704-12.237,12.64-12.237c11.934,0,12.64,8.912,12.64,12.237V138.005z M246.763,128.084c0-3.877-0.25-6.245-3.977-6.245
			c-3.729,0-3.98,2.368-3.98,6.245v7.251c0,3.877,0.252,6.244,3.98,6.244c3.727,0,3.977-2.367,3.977-6.244V128.084z"/>
		<path d="M267.111,114.083c1.006,0,1.51,0.503,1.51,1.512v23.566c0,0.958,0.554,1.512,1.511,1.512h11.229
			c1.009,0,1.513,0.504,1.513,1.512v5.639c0,1.009-0.504,1.512-1.513,1.512h-19.89c-0.958,0-1.514-0.554-1.514-1.512v-32.229
			c0-1.009,0.556-1.512,1.514-1.512H267.111z"/>
		<path d="M308.657,114.083c1.007,0,1.51,0.503,1.51,1.512v5.64c0,0.957-0.503,1.512-1.51,1.512h-12.188
			c-0.957,0-1.512,0.503-1.512,1.51v1.612c0,0.956,0.555,1.511,1.512,1.511h7.806c1.007,0,1.512,0.503,1.512,1.51v5.64
			c0,0.957-0.505,1.513-1.512,1.513h-7.806c-0.957,0-1.512,0.504-1.512,1.512v1.609c0,0.958,0.555,1.512,1.512,1.512h12.188
			c1.007,0,1.51,0.505,1.51,1.513l-0.017,2.684l-0.18,2.794c-0.309,0.818-0.309,1.673-1.313,1.673h-21.15
			c-0.957,0-1.511-0.555-1.511-1.512v-32.229c0-1.008,0.554-1.512,1.511-1.512L308.657,114.083L308.657,114.083z"/>
	</g>
	<g>
		<path d="M196.437,193.668c-4.819-8.233-12.301-17.789-25.34-17.747l-40.713,0.134c-24.481,0.081-44.222-10.185-42.952-31.792
			l6.921-0.021c-0.851,14.76,11.257,24.444,29.087,24.388l47.634-0.157c12.772-0.042,21.583,8.71,27.733,17.473
			c6.091-8.803,15.109-17.615,27.882-17.656l47.9-0.157c18.895-0.062,28.706-10.472,28.659-24.575l6.918-0.023
			c0.076,22.886-17.989,31.993-42.737,32.074l-40.714,0.135c-13.306,0.043-20.46,9.646-25.224,17.912L196.437,193.668z"/>
	</g>
</g>
</svg>
